<svg width="512" height="512" viewBox="0 0 512 512" fill="none" xmlns="http://www.w3.org/2000/svg">
<path d="M445.44 93.2264C445.44 93.2264 445.44 94.9331 445.44 95.7864C445.44 105.813 443.307 115.2 439.68 123.733L439.04 125.226L290.987 461.013C277.76 491.306 234.88 491.306 221.44 461.013L131.413 257.28L259.2 195.84C267.52 210.773 283.733 221.226 302.293 221.226C330.667 221.226 353.28 197.333 351.573 168.746C350.08 144.213 330.027 124.16 305.493 122.666C276.907 120.96 253.013 143.573 253.013 171.946C253.013 174.506 253.013 177.066 253.653 179.626L109.227 207.36L72.7465 125.013C68.6932 116.053 66.5599 106.24 66.5599 95.9997C66.5599 95.1464 66.5599 94.2931 66.5599 93.4397C66.5599 92.7997 66.5599 92.1597 66.5599 91.7331C66.5599 68.2664 79.5732 47.5731 98.5599 36.9064C98.5599 36.9064 98.5599 36.9064 98.7732 36.9064C101.547 35.4131 104.32 34.1331 107.307 32.8531C114.133 30.2931 121.6 29.0131 129.28 29.0131C135.04 29.0131 140.8 29.8664 146.133 31.3597C148.693 31.9997 157.653 34.9864 160.213 36.0531C166.827 38.3997 168.533 39.0397 171.733 40.3197C224 61.0131 285.227 60.5864 338.347 40.1064L360.107 33.2797C366.933 30.7197 374.4 29.2264 382.293 29.2264C393.813 29.2264 404.48 32.2131 413.867 37.5464C432.64 48.4264 445.44 68.6931 445.44 92.1597C445.44 92.7997 445.44 93.4397 445.44 93.8664V93.2264Z" fill="#3BD569"/>
<path d="M351.787 171.733C351.787 199.04 329.6 221.013 302.507 221.013C283.947 221.013 267.733 210.773 259.413 195.626L131.627 257.28L120.747 232.533L118.187 226.56L109.653 207.146L254.08 179.413C253.653 176.853 253.44 174.293 253.44 171.733C253.44 144.426 275.627 122.453 302.72 122.453C329.813 122.453 352 144.64 352 171.733H351.787Z" fill="white"/>
</svg>
